<svg width="22" height="25" viewBox="0 0 22 25" fill="none" xmlns="http://www.w3.org/2000/svg">
<rect x="3.37891" y="20.4277" width="17.0158" height="0.802632" rx="0.401316" fill="black"/>
<rect x="1.45264" y="23.7979" width="20.5474" height="0.802632" rx="0.401316" fill="black"/>
<rect x="1.45264" y="10.6348" width="20.5474" height="0.802632" rx="0.401316" fill="black"/>
<rect x="1.45264" y="24.6006" width="13.9658" height="0.802632" rx="0.401316" transform="rotate(-90 1.45264 24.6006)" fill="black"/>
<rect y="6.75488" width="20.4777" height="0.802632" rx="0.401316" transform="rotate(-19.26 0 6.75488)" fill="black"/>
<rect x="0.786621" y="6.58203" width="4.69539" height="0.802632" rx="0.401316" transform="rotate(70.4494 0.786621 6.58203)" fill="black"/>
<rect x="19.3772" y="0.160156" width="4.69539" height="0.802632" rx="0.401316" transform="rotate(70.4494 19.3772 0.160156)" fill="black"/>
<rect x="1.45264" y="10.7227" width="20.4338" height="0.802632" rx="0.401316" transform="rotate(-19.26 1.45264 10.7227)" fill="black"/>
<rect x="21.1973" y="24.6006" width="13.8053" height="0.802632" rx="0.401316" transform="rotate(-90 21.1973 24.6006)" fill="black"/>
<rect x="1.45264" y="14.3271" width="20.3868" height="0.802632" rx="0.401316" fill="black"/>
<rect x="3.50806" y="14.5977" width="5.75446" height="0.802632" rx="0.401316" transform="rotate(-45.0963 3.50806 14.5977)" fill="black"/>
<rect x="15.2578" y="14.5752" width="5.59409" height="0.802632" rx="0.401316" transform="rotate(-45.0963 15.2578 14.5752)" fill="black"/>
<rect x="9.32227" y="14.6211" width="5.72423" height="0.802632" rx="0.401316" transform="rotate(-45.0963 9.32227 14.6211)" fill="black"/>
<rect x="3.69995" y="9.95801" width="5.85555" height="0.802632" transform="rotate(-63.9898 3.69995 9.95801)" fill="black"/>
<rect x="8.83691" y="8.19238" width="5.8857" height="0.802632" transform="rotate(-63.9898 8.83691 8.19238)" fill="black"/>
<rect x="13.7998" y="6.43848" width="6.00981" height="0.802632" transform="rotate(-63.9898 13.7998 6.43848)" fill="black"/>
<rect x="3.37891" y="17.2168" width="4.65526" height="0.802632" rx="0.401316" fill="black"/>
<rect x="9.96045" y="17.2168" width="10.5947" height="0.802632" rx="0.401316" fill="black"/>
<circle cx="8.99745" cy="17.6984" r="0.481579" fill="black"/>
</svg>
