<svg width="24" height="21" viewBox="0 0 24 21" fill="none" xmlns="http://www.w3.org/2000/svg">
<path d="M1.28223 3C1.28223 2.05719 1.28223 1.58579 1.57512 1.29289C1.86801 1 2.33942 1 3.28223 1H20.7181C21.6609 1 22.1323 1 22.4252 1.29289C22.7181 1.58579 22.7181 2.05719 22.7181 3V18.1795C22.7181 19.1223 22.7181 19.5937 22.4252 19.8866C22.1323 20.1795 21.6609 20.1795 20.7181 20.1795H3.28222C2.33942 20.1795 1.86801 20.1795 1.57512 19.8866C1.28223 19.5937 1.28223 19.1223 1.28223 18.1795V3Z" stroke="#00A3FF" stroke-linecap="round" stroke-linejoin="round"/>
<path d="M6.2963 1V7.20513M6.2963 19.6154V10.7509M17.7037 1V7.20513M17.7037 19.6154V14.2967M1 7.20513H6.2963M6.2963 7.20513V10.7509M6.2963 10.7509H17.7037M17.7037 10.7509V7.20513M17.7037 10.7509V14.2967M1 14.2967H6.2963M17.7037 14.2967H23M17.7037 7.20513H23" stroke="#00A3FF"/>
</svg>
