
<svg width="24" height="21" viewBox="0 0 24 21" fill="none" xmlns="http://www.w3.org/2000/svg">
<path d="M1.28198 3C1.28198 2.05719 1.28198 1.58579 1.57488 1.29289C1.86777 1 2.33917 1 3.28198 1H20.7179C21.6607 1 22.1321 1 22.425 1.29289C22.7179 1.58579 22.7179 2.05719 22.7179 3V18.1795C22.7179 19.1223 22.7179 19.5937 22.425 19.8866C22.1321 20.1795 21.6607 20.1795 20.7179 20.1795H3.28198C2.33917 20.1795 1.86777 20.1795 1.57488 19.8866C1.28198 19.5937 1.28198 19.1223 1.28198 18.1795V3Z" stroke="black" stroke-linecap="round" stroke-linejoin="round"/>
<path d="M6.2963 1V7.20513M6.2963 19.6154V10.7509M17.7037 1V7.20513M17.7037 19.6154V14.2967M1 7.20513H6.2963M6.2963 7.20513V10.7509M6.2963 10.7509H17.7037M17.7037 10.7509V7.20513M17.7037 10.7509V14.2967M1 14.2967H6.2963M17.7037 14.2967H23M17.7037 7.20513H23" stroke="black"/>
</svg>
